<svg xmlns="http://www.w3.org/2000/svg" viewBox="0 0 100 100">
  <!-- Snowflake - 6 pointed geometric -->
  <!-- Center vertical line -->
  <line x1="50" y1="20" x2="50" y2="80" stroke="#1A1A1A" stroke-width="3" stroke-linecap="round"/>
  <!-- Diagonal lines -->
  <line x1="24" y1="35" x2="76" y2="65" stroke="#1A1A1A" stroke-width="3" stroke-linecap="round"/>
  <line x1="76" y1="35" x2="24" y2="65" stroke="#1A1A1A" stroke-width="3" stroke-linecap="round"/>
  <!-- Top branches -->
  <line x1="50" y1="20" x2="42" y2="28" stroke="#1A1A1A" stroke-width="2" stroke-linecap="round"/>
  <line x1="50" y1="20" x2="58" y2="28" stroke="#1A1A1A" stroke-width="2" stroke-linecap="round"/>
  <!-- Bottom branches -->
  <line x1="50" y1="80" x2="42" y2="72" stroke="#1A1A1A" stroke-width="2" stroke-linecap="round"/>
  <line x1="50" y1="80" x2="58" y2="72" stroke="#1A1A1A" stroke-width="2" stroke-linecap="round"/>
  <!-- Upper left branches -->
  <line x1="24" y1="35" x2="28" y2="27" stroke="#1A1A1A" stroke-width="2" stroke-linecap="round"/>
  <line x1="24" y1="35" x2="28" y2="43" stroke="#1A1A1A" stroke-width="2" stroke-linecap="round"/>
  <!-- Lower right branches -->
  <line x1="76" y1="65" x2="72" y2="57" stroke="#1A1A1A" stroke-width="2" stroke-linecap="round"/>
  <line x1="76" y1="65" x2="72" y2="73" stroke="#1A1A1A" stroke-width="2" stroke-linecap="round"/>
  <!-- Upper right branches -->
  <line x1="76" y1="35" x2="72" y2="27" stroke="#1A1A1A" stroke-width="2" stroke-linecap="round"/>
  <line x1="76" y1="35" x2="72" y2="43" stroke="#1A1A1A" stroke-width="2" stroke-linecap="round"/>
  <!-- Lower left branches -->
  <line x1="24" y1="65" x2="28" y2="57" stroke="#1A1A1A" stroke-width="2" stroke-linecap="round"/>
  <line x1="24" y1="65" x2="28" y2="73" stroke="#1A1A1A" stroke-width="2" stroke-linecap="round"/>
</svg>
